<svg width="394" height="87" viewBox="0 0 394 87" fill="none" xmlns="http://www.w3.org/2000/svg">
<path d="M0 20C0 8.9543 8.95431 0 20 0H374C385.046 0 394 8.95431 394 20V87H0V20Z" fill="black"/>
<path d="M342.405 38.0625H342.167C341.886 36.6653 341.391 35.3805 340.682 34.2079C339.974 33.0353 339.113 32.0249 338.099 31.1766C337.085 30.3283 335.943 29.6672 334.673 29.1932C333.402 28.7191 332.071 28.4821 330.679 28.4821C329.604 28.4821 328.565 28.6256 327.564 28.9125C326.562 29.1994 325.628 29.5986 324.76 30.11C323.893 30.6215 323.105 31.2452 322.397 31.9812C321.688 32.7172 321.078 33.528 320.565 34.4137C320.052 35.2994 319.655 36.2537 319.374 37.2766C319.093 38.2995 318.952 39.3598 318.952 40.4576H316.607C316.607 38.9606 316.821 37.5198 317.248 36.1352C317.676 34.7505 318.293 33.4719 319.099 32.2993C319.905 31.1267 320.858 30.0851 321.957 29.1745C323.057 28.2638 324.302 27.5465 325.695 27.0226C324.315 26.0995 323.24 24.9394 322.47 23.5423C321.701 22.1451 321.31 20.5983 321.298 18.9018C321.298 17.5795 321.542 16.3383 322.03 15.1782C322.519 14.018 323.185 13.0014 324.028 12.1282C324.87 11.2549 325.866 10.5689 327.014 10.0699C328.162 9.5709 329.384 9.32141 330.679 9.32141C331.973 9.32141 333.189 9.5709 334.325 10.0699C335.461 10.5689 336.456 11.2487 337.311 12.1094C338.166 12.9702 338.838 13.9868 339.327 15.1594C339.815 16.332 340.059 17.5795 340.059 18.9018C340.059 19.7251 339.962 20.5297 339.766 21.3156C339.571 22.1015 339.278 22.8437 338.887 23.5423C338.496 24.2408 338.038 24.8833 337.513 25.4696C336.987 26.0559 336.371 26.5735 335.662 27.0226C337.03 27.559 338.288 28.295 339.437 29.2306C340.585 30.1662 341.574 31.2639 342.405 32.5238V38.0625ZM323.643 18.9018C323.643 19.8997 323.826 20.8291 324.192 21.6898C324.559 22.5505 325.06 23.3115 325.695 23.9726C326.33 24.6338 327.075 25.1515 327.93 25.5257C328.785 25.8999 329.701 26.087 330.679 26.087C331.644 26.087 332.554 25.8999 333.409 25.5257C334.264 25.1515 335.009 24.64 335.644 23.9913C336.279 23.3427 336.786 22.5817 337.165 21.7085C337.543 20.8353 337.726 19.8997 337.714 18.9018C337.714 17.9163 337.531 16.9869 337.165 16.1137C336.798 15.2405 336.297 14.4796 335.662 13.8309C335.027 13.1822 334.276 12.6646 333.409 12.2778C332.541 11.8911 331.631 11.704 330.679 11.7165C329.701 11.7165 328.791 11.9036 327.949 12.2778C327.106 12.6521 326.361 13.1635 325.713 13.8122C325.066 14.4609 324.559 15.2281 324.192 16.1137C323.826 16.9994 323.643 17.9288 323.643 18.9018ZM347.095 40.4576H351.786V42.8527H347.095V47.6428H344.75V42.8527H340.059V40.4576H344.75V35.6674H347.095V40.4576Z" fill="white"/>
<ellipse cx="341.232" cy="9.83929" rx="3.51786" ry="3.625" fill="#D84444"/>
</svg>
